HIERARCHY
ROOT Hips
{
	OFFSET 0.000000 0.000000 0.000000
	CHANNELS 6 Xposition Yposition Zposition Zrotation Yrotation Xrotation
	JOINT Spine
	{
		OFFSET 0.000000 -0.000005 8.329106
		CHANNELS 3 Zrotation Yrotation Xrotation
		JOINT Spine1
		{
			OFFSET 0.000000 -0.000022 22.729408
			CHANNELS 3 Zrotation Yrotation Xrotation
			JOINT Neck
			{
				OFFSET 0.000000 -0.000023 24.760899
				CHANNELS 3 Zrotation Yrotation Xrotation
				JOINT Head
				{
					OFFSET 0.000000 -2.031501 15.744046
					CHANNELS 3 Zrotation Yrotation Xrotation
					End Site
					{
						OFFSET 0.000000 -0.000019 20.314884
					}
				}
			}
			JOINT LeftShoulder
			{
				OFFSET 4.090893 0.536973 19.993153
				CHANNELS 3 Zrotation Yrotation Xrotation
				JOINT LeftArm
				{
					OFFSET 14.597431 0.000000 0.000000
					CHANNELS 3 Zrotation Yrotation Xrotation
					JOINT LeftForeArm
					{
						OFFSET 28.623245 0.000000 0.000000
						CHANNELS 3 Zrotation Yrotation Xrotation
						JOINT LeftHand
						{
							OFFSET 26.601603 0.000000 0.000000
							CHANNELS 3 Zrotation Yrotation Xrotation
							End Site
							{
								OFFSET 15.236179 0.000000 0.000000
							}
						}
					}
				}
			}
			JOINT RightShoulder
			{
				OFFSET -4.034451 0.536973 19.993153
				CHANNELS 3 Zrotation Yrotation Xrotation
				JOINT RightArm
				{
					OFFSET -14.597431 0.000000 0.000000
					CHANNELS 3 Zrotation Yrotation Xrotation
					JOINT RightForeArm
					{
						OFFSET -28.623253 0.000000 0.000000
						CHANNELS 3 Zrotation Yrotation Xrotation
						JOINT RightHand
						{
							OFFSET -26.601603 0.000000 0.000000
							CHANNELS 3 Zrotation Yrotation Xrotation
							End Site
							{
								OFFSET -15.236179 0.000000 0.000000
							}
						}
					}
				}
			}
		}
	}
	JOINT LeftUpLeg
	{
		OFFSET 10.157450 0.000000 0.000000
		CHANNELS 3 Zrotation Yrotation Xrotation
		JOINT LeftLeg
		{
			OFFSET 0.000000 0.000035 -42.718693
			CHANNELS 3 Zrotation Yrotation Xrotation
			JOINT LeftFoot
			{
				OFFSET 0.000000 0.000037 -44.785763
				CHANNELS 3 Zrotation Yrotation Xrotation
				JOINT LeftToeBase
				{
					OFFSET 0.000000 -15.236171 -6.602339
					CHANNELS 3 Zrotation Yrotation Xrotation
					End Site
					{
						OFFSET 0.000000 -4.062982 0.000000
					}
				}
			}
		}
	}
	JOINT RightUpLeg
	{
		OFFSET -10.157450 0.000000 0.000000
		CHANNELS 3 Zrotation Yrotation Xrotation
		JOINT RightLeg
		{
			OFFSET 0.000000 0.000035 -42.718693
			CHANNELS 3 Zrotation Yrotation Xrotation
			JOINT RightFoot
			{
				OFFSET 0.000000 0.000037 -44.785763
				CHANNELS 3 Zrotation Yrotation Xrotation
				JOINT RightToeBase
				{
					OFFSET 0.000000 -15.236171 -6.602339
					CHANNELS 3 Zrotation Yrotation Xrotation
					End Site
					{
						OFFSET 0.000000 -4.062982 0.000000
					}
				}
			}
		}
	}
}
MOTION
Frames: 6
Frame Time: 0.041667
7.083000 0.824681 89.482376 1.122050 -0.805472 3.667095 -2.289030 1.334238 -18.306739 -1.462054 -4.660296 18.439918 4.195295 -6.517187 9.402146 6.653732 5.034252 6.258849 3.306505 -20.634770 -9.392030 -11.231140 14.166683 -2.384176 -8.521177 -6.386683 -8.548801 -1.856991 7.098233 -9.140903 -11.009403 17.038943 -5.550910 20.476260 -8.811600 27.068967 105.485988 33.096815 48.429897 4.604507 34.204734 7.172357 -2.115982 2.248882 -6.986425 1.569968 -1.343038 13.525328 21.657326 -0.551397 -6.174440 0.000003 0.000000 0.000002 0.892461 -1.137976 -5.845751 -1.140303 -1.675539 12.807406 -20.909723 -3.362384 -11.766784 0.000004 -0.000001 -0.000004 
7.113534 0.841501 89.487701 1.123734 -0.830224 3.740617 -2.286521 1.336592 -18.277393 -1.454643 -4.642465 18.354445 4.218247 -6.505207 9.362708 6.672031 5.034335 6.247443 3.326827 -20.611458 -9.374728 -11.267614 14.170676 -2.514401 -8.525839 -6.357894 -8.497399 -1.851952 7.107434 -9.087428 -10.975099 17.065047 -5.537255 20.401049 -8.850830 27.122710 105.602579 33.148247 48.517559 4.514799 34.211601 7.086615 -2.127548 2.268751 -7.572408 1.284705 -1.225821 14.517874 21.962789 -0.500239 -6.489765 0.000002 0.000002 0.000001 0.901577 -1.043405 -5.937812 -1.139927 -1.770321 12.832405 -20.926337 -3.346514 -11.778928 0.000008 0.000002 0.000002 
7.148695 0.862899 89.494675 1.141425 -0.855756 3.814957 -2.293812 1.337904 -18.225229 -1.449799 -4.624514 18.246941 4.241260 -6.473654 9.301212 6.682069 5.010027 6.260994 3.337379 -20.596593 -9.357112 -11.269333 14.194295 -2.533609 -8.549719 -6.360766 -8.510053 -1.846069 7.093247 -9.101040 -10.981725 17.075855 -5.547147 20.373090 -8.866864 27.161664 105.690395 33.180017 48.603237 4.471782 34.177389 7.056182 -2.108594 2.296868 -8.218872 1.051001 -1.130123 15.633033 22.123818 -0.614083 -6.950143 0.000002 -0.000002 0.000003 0.911632 -0.943797 -6.033742 -1.184102 -1.863990 12.851682 -20.931260 -3.347932 -11.773994 0.000007 0.000002 -0.000000 
7.190902 0.886277 89.502068 1.188991 -0.882608 3.885606 -2.314701 1.312645 -18.165901 -1.444043 -4.564423 18.138407 4.259518 -6.455968 9.247437 6.691132 4.999484 6.239159 3.356550 -20.598966 -9.321035 -11.296395 14.217023 -2.583226 -8.552346 -6.364178 -8.522622 -1.805522 7.116363 -9.111846 -10.987214 17.073825 -5.521625 20.357396 -8.857955 27.045860 105.750453 33.233225 47.988144 7.965855 32.568914 7.287210 -2.194565 2.316104 -8.927767 0.694589 -0.961662 16.881863 22.528049 -0.502368 -7.563616 0.000003 -0.000000 0.000001 0.920296 -0.836033 -6.127976 -1.606491 -1.877251 12.874677 -20.579478 -3.323062 -11.758875 0.000001 -0.000000 0.000000 
7.235535 0.909183 89.509644 1.248325 -0.896986 3.959468 -2.324621 1.285865 -18.115436 -1.438082 -4.519628 18.047911 4.253255 -6.442684 9.178872 6.678032 5.002079 6.220569 3.330127 -20.590205 -9.272741 -11.304446 14.226330 -2.630769 -8.551954 -6.387490 -8.513459 -1.844874 7.146780 -9.107349 -10.978920 17.072215 -5.556780 20.288846 -8.851032 27.023213 105.819397 33.037342 48.637388 4.337594 34.277226 7.139575 -2.205212 2.360828 -9.655729 0.431444 -0.847677 18.221603 22.721374 -0.440871 -8.278087 0.000001 0.000000 -0.000001 0.930645 -0.738699 -6.228785 -1.660346 -1.975911 12.913512 -20.607825 -3.348951 -11.753682 0.000002 0.000000 -0.000001 
7.291831 0.936348 89.519516 1.336060 -0.899921 4.029794 -2.340379 1.235280 -18.043099 -1.433639 -4.467919 17.939516 4.246039 -6.424083 9.101943 6.660894 4.997125 6.199910 3.327177 -20.583675 -9.227760 -11.369974 14.235914 -2.775083 -8.518612 -6.377880 -8.514709 -1.822612 7.166902 -9.104933 -10.993645 17.091850 -5.514287 20.204067 -8.850896 27.035979 105.936412 33.113150 48.826581 4.311530 34.291743 7.143858 -2.469935 2.336012 -10.394578 0.399438 -0.666025 19.443167 22.881569 -0.458320 -8.865995 0.000000 -0.000000 0.000001 0.939542 -0.652950 -6.317604 -1.561878 -2.098667 12.939418 -20.809853 -3.353118 -11.734534 0.000003 0.000001 -0.000000 
